<svg viewBox="0 0 16 16">
    <path fill="#3b5999" d="m 15.11687,16.000001 c 0.487599,0 0.88301,-0.39541 0.88301,-0.88313 V 0.883071 C 15.99988,0.395281 15.60453,1e-6 15.11687,1e-6 H 0.8830695 c -0.48778,0 -0.88307,0.39528 -0.88307,0.88307 v 14.2338 c 0,0.48766 0.39522,0.88313 0.88307,0.88313 H 15.11687 z"/>
    <path fill="#ffffff" d="m 11.03968,16.000001 v -6.19608 h 2.07973 l 0.31141,-2.41472 h -2.39114 v -1.54165 c 0,-0.69912 0.19414,-1.17555 1.19666,-1.17555 l 1.27866,-5.6e-4 v -2.15974 c -0.22114,-0.0294 -0.98017,-0.0952 -1.86324,-0.0952 -1.8435605,0 -3.1057105,1.12532 -3.1057105,3.19188 v 1.7808 h -2.08506 v 2.41472 h 2.08506 v 6.19608 H 11.03968 z"/>
</svg>